<?xml version="1.0" encoding="UTF-8"?>
<svg width="100pt" height="100pt" version="1.1" viewBox="0 0 100 100" xmlns="http://www.w3.org/2000/svg">
 <path d="m82.788 25.311c-4.0512-1.4122-8.4814 0.72857-9.8948 4.7792l-9.392 26.927c-0.62873 1.8049-2.329 3.0132-4.2383 3.0132h-19.642c-2.1099 0-4.0857 1.0314-5.2886 2.7674l-16.608 23.938c-3.0339 3.0342-3.0339 7.9543 0 10.989 3.0342 3.0342 7.9534 3.0342 10.988 0l12.28-19.465c1.0566-1.676 2.8987-2.6924 4.8793-2.6924h22.247c3.2162 0 6.0804-2.0328 7.1397-5.07l3.6506-10.467 8.6574-24.825c0.29533-0.8455 0.43594-1.709 0.43594-2.5575 0-3.2111-2.0076-6.2183-5.2127-7.3367" style="fill:#100f0d"/>
 <path d="m93.406 10.389c0 5.7356-4.65 10.386-10.386 10.386s-10.386-4.6503-10.386-10.386c0-5.7386 4.65-10.389 10.386-10.389s10.386 4.6503 10.386 10.389" style="fill:#100f0d"/>
 <path d="m60.838 17.678-18.171-12.59c-0.46083-0.31781-1.0905 0.011985-1.0905 0.57266v6.1494h-14.428c-0.45963 0-0.83261 0.37178-0.83261 0.83051v11.213c0 0.46173 0.37298 0.83351 0.83261 0.83351h14.428v6.1494c0 0.56067 0.62963 0.89048 1.0905 0.56966l18.171-12.587c0.39906-0.27584 0.39906-0.86649 0-1.1423" style="fill:#100f0d"/>
</svg>
