<?xml version="1.0" encoding="UTF-8"?>
<svg width="100pt" height="100pt" fill="#000000" version="1.1" viewBox="0 0 100 100" xml:space="preserve" xmlns="http://www.w3.org/2000/svg">
<path d="m96.787 25.568h-93.573c-1.7751 0-3.2135 1.4388-3.2135 3.2135v55.617c0 1.7747 1.4383 3.2135 3.2135 3.2135h93.573c1.7751 0 3.2135-1.4388 3.2135-3.2135v-55.617c0-1.7747-1.4388-3.2135-3.2135-3.2135zm-3.2135 55.617h-87.146v-49.19h87.146z"/><path d="m15.075 59.803h18.451c1.7751 0 3.2135-1.4388 3.2135-3.2135s-1.4383-3.2135-3.2135-3.2135h-18.451c-1.7751 0-3.2135 1.4388-3.2135 3.2135s1.4383 3.2135 3.2135 3.2135z"/><path d="m66.474 59.803h6.0126v6.0126c0 1.7747 1.4383 3.2135 3.2135 3.2135 1.7751 0 3.2135-1.4388 3.2135-3.2135v-6.0126h6.0117c1.7751 0 3.2135-1.4388 3.2135-3.2135s-1.4383-3.2135-3.2135-3.2135h-6.0117v-6.0117c0-1.7747-1.4383-3.2135-3.2135-3.2135-1.7751 0-3.2135 1.4388-3.2135 3.2135v6.0117h-6.0126c-1.7751 0-3.2135 1.4388-3.2135 3.2135s1.4383 3.2135 3.2135 3.2135z"/><path d="m15.075 18.815h18.451c1.7751 0 3.2135-1.4388 3.2135-3.2135s-1.4383-3.2135-3.2135-3.2135h-18.451c-1.7751 0-3.2135 1.4388-3.2135 3.2135s1.4383 3.2135 3.2135 3.2135z"/><path d="m66.474 18.815h18.451c1.7751 0 3.2135-1.4388 3.2135-3.2135s-1.4383-3.2135-3.2135-3.2135h-18.451c-1.7751 0-3.2135 1.4388-3.2135 3.2135s1.4383 3.2135 3.2135 3.2135z"/>
</svg>
