<?xml version="1.0" encoding="UTF-8"?>
<svg width="100pt" height="100pt" fill="#000000" version="1.1" viewBox="0 0 100 100" xml:space="preserve" xmlns="http://www.w3.org/2000/svg">
<path d="m50 13.087c-20.354 0-36.913 16.559-36.913 36.913 0 20.354 16.559 36.912 36.913 36.912s36.913-16.559 36.913-36.912c4.26e-4 -20.354-16.559-36.913-36.913-36.913zm0 67.427c-16.825 0-30.514-13.688-30.514-30.513 0-16.826 13.688-30.514 30.514-30.514 16.825 0 30.514 13.688 30.514 30.514 4.26e-4 16.825-13.688 30.513-30.514 30.513z"/><path d="m19.153 19.153c1.2495-1.2495 1.2495-3.2755 0-4.525-1.25-1.2495-3.2755-1.2495-4.525 0-19.504 19.504-19.504 51.24 0 70.744 0.62498 0.62498 1.4436 0.93725 2.2627 0.93725 0.81866 0 1.6377-0.31228 2.2623-0.93725 1.25-1.2495 1.25-3.2751 4.27e-4 -4.5246-17.009-17.01-17.009-44.686-4.27e-4 -61.695z"/><path d="m85.372 14.628c-1.25-1.2495-3.2755-1.2495-4.525 0-1.2495 1.2495-1.2495 3.2755 0 4.525 17.01 17.009 17.01 44.685 0 61.695-1.2495 1.2495-1.2495 3.2755 0 4.5246 0.62498 0.62455 1.4441 0.93725 2.2627 0.93725s1.6377-0.31228 2.2627-0.93725c19.504-19.505 19.504-51.24-4.26e-4 -70.744z"/><path d="m50 59.813c1.7674 0 3.1995-1.4325 3.1995-3.1995v-27.252c0-1.767-1.4321-3.1995-3.1995-3.1995-1.7674 0-3.1995 1.4325-3.1995 3.1995v27.252c0 1.767 1.4325 3.1995 3.1995 3.1995z"/><path d="m53.979 66.659a3.9798 3.9798 0 0 1-3.9798 3.9798 3.9798 3.9798 0 0 1-3.9798-3.9798 3.9798 3.9798 0 0 1 3.9798-3.9798 3.9798 3.9798 0 0 1 3.9798 3.9798z"/>
</svg>
