<?xml version="1.0" encoding="UTF-8"?>
<svg id="a" width="100pt" height="100pt" version="1.1" viewBox="0 0 100 100" xmlns="http://www.w3.org/2000/svg">
 <g id="b" transform="matrix(.25 0 0 .25 0 .039155)" style="stroke-width:4">
  <path d="m181.64 70.014c-66.49 5.344-124.14 30.195-171.09 73.749-9.792 9.084-10.535 10.184-10.542 15.607l-5e-3 4.291 63.281 63.281c63.26 63.26 63.282 63.283 63.282 66.482 0 17.525 16.608 39.516 27.735 36.724 9.276-2.329 10.19-12.527 1.906-21.286-7.242-7.657-9.804-18.57-6.73-28.671 2.119-6.963 25.059-16.685 42.914-18.188l6.06-0.51-1.193 3.38c-8.44 23.921-5.368 43.989 8.984 58.699 6.539 6.702 9.338 7.861 14.942 6.182 8.322-2.494 9.192-11.671 1.88-19.826-10.143-11.313-11.17-19.275-4.984-38.639 1.27-3.975 2.39-7.226 2.489-7.226 5.553 0 25.741 10.215 34.317 17.364l3.711 3.093 0.011 5.982c0.047 24.362 20.214 47.643 32.068 37.021 5.194-4.655 4.436-11.146-2.136-18.295-6.2-6.744-8.242-11.627-8.19-19.586l0.042-6.345 59.805-59.825 59.806-59.824-5e-3 -4.285c-7e-3 -5.416-0.752-6.519-10.542-15.6-55.523-51.506-134.74-79.621-207.81-73.749m44.344 22.55c53.984 5.729 104.83 27.842 143.26 62.302l4.795 4.3-39.44 39.362c-21.692 21.65-39.239 38.66-38.993 37.8 3.206-11.199 1.34-27.668-4.253-37.546l-2.239-3.952 4.66-4.102c5.19-4.569 6.43-9.27 3.277-12.423-3.558-3.558-53.877-31.43-56.742-31.43-9.186 0-8.84 3.843 3.412 37.891 12.608 35.037 13.722 36.343 23.918 28.038 4.957-4.038 5.031-4.012 6.969 2.377 2.25 7.414 1.17 13.958-5.411 32.8-2.386 6.829-4.437 12.515-4.558 12.636s-2.674-1.366-5.674-3.304c-7.069-4.568-16.364-9.04-24.203-11.643-3.438-1.142-6.354-2.173-6.48-2.293-0.126-0.119 0.525-3.863 1.446-8.32 2.858-13.818 1.176-27.126-4.63-36.633l-2.155-3.529 4.228-3.457c5.973-4.885 7.238-9.078 3.88-12.864-3.257-3.672-53.562-31.699-56.896-31.699-3.364 0-6.971 3.438-6.971 6.644 0 1.494 12.471 37.312 19.514 56.045 1.887 5.017 3.886 6.842 7.497 6.842 2.29 0 3.722-0.788 9.686-5.334l2.387-1.819 1.534 3.381c1.692 3.729 2.125 12.978 0.833 17.835-0.399 1.504-1.114 4.228-1.588 6.054l-0.861 3.321h-5.079c-10.849 0-27.226 2.635-36.194 5.824-4.38 1.557-4.32 1.684-2.451-5.134 4.34-15.832 3.104-31.352-3.361-42.193l-1.993-3.342 4.647-4.206c5.209-4.713 6.4-9.353 3.218-12.534-3.564-3.565-53.832-31.384-56.709-31.384-9.164 0-8.814 3.849 3.438 37.891 12.586 34.967 13.734 36.323 23.799 28.125 5.287-4.306 4.675-4.396 6.709 0.976 2.019 5.333 1.766 12.94-0.709 21.289-1.705 5.753-9.221 27.085-9.969 28.295-0.27 0.436-24.135-22.85-53.035-51.746l-52.543-52.54 4.794-4.299c51.384-46.076 125.44-69.709 195.23-62.302" fill-rule="evenodd" style="stroke-width:4"/>
 </g>
</svg>
