<?xml version="1.0" encoding="UTF-8"?>
<svg width="100pt" height="100pt" fill="#000000" version="1.1" viewBox="0 0 100 100" xml:space="preserve" xmlns="http://www.w3.org/2000/svg">
<path d="m12.571 13.404c-1.4201 0-2.5711 1.1502-2.5711 2.5699v48.449c0 1.4198 1.151 2.5711 2.5711 2.5711h16.043c-2.0367 6.0793-3.1388 12.979 3.682 18.963 0.4881 0.42812 1.0918 0.6375 1.6934 0.6375 0.71433 0 1.4253-0.2961 1.9336-0.87536 0.93647-1.0674 0.83031-2.6909-0.23672-3.6269-4.8204-4.2284-3.9663-8.6232-1.6207-15.098h14.909c-2.0371 6.0797-3.1388 12.979 3.682 18.963 0.4881 0.42812 1.093 0.63867 1.6946 0.63867 0.71433 0 1.4253-0.2961 1.9336-0.87536 0.93648-1.0674 0.83032-2.692-0.23672-3.6281-4.8207-4.2284-3.9663-8.6232-1.6207-15.098h14.91c-2.0371 6.0797-3.1391 12.979 3.682 18.963 0.48776 0.42812 1.093 0.63867 1.6946 0.63867 0.71433 0 1.425-0.29611 1.9336-0.87536 0.93608-1.0674 0.82952-2.692-0.23789-3.6281-4.8207-4.2284-3.9663-8.6216-1.6207-15.098h12.641c1.4201 0 2.5711-1.1514 2.5711-2.5711v-48.449c3.43e-4 -1.4198-1.1514-2.5699-2.5711-2.5699zm2.5699 5.141h69.716v43.306h-8.1984c1.7396-5.1905 2.7957-10.979-1.1778-16.284l2.8113-2.3589c0.42915-0.36025 0.65556-0.908 0.60585-1.466-0.05004-0.55803-0.37024-1.0561-0.85663-1.3348l-15.717-8.9928c-0.6235-0.35648-1.4022-0.2871-1.9523 0.17461-0.5498 0.46137-0.75513 1.2178-0.51211 1.8938l6.1277 17.04c0.18955 0.52718 0.62395 0.92856 1.1649 1.0746 0.14774 0.03976 0.29821 0.0586 0.44765 0.0586 0.39795 0 0.78929-0.13856 1.1016-0.40078l2.8324-2.3765c2.5478 3.6165 1.6291 7.5696-0.32813 12.973h-14.909c1.7399-5.1905 2.7957-10.98-1.1778-16.286l2.8113-2.3578c0.42915-0.36025 0.65556-0.908 0.60585-1.466-0.05004-0.55803-0.37025-1.0561-0.85664-1.3348l-15.717-8.9928c-0.62316-0.35648-1.4022-0.2871-1.9523 0.17461-0.54981 0.46137-0.75396 1.217-0.51093 1.8926l6.1253 17.04c0.18955 0.52718 0.62512 0.92944 1.166 1.0758 0.14774 0.03977 0.29821 0.0586 0.44766 0.0586 0.39829 0 0.78929-0.13856 1.1016-0.40078l2.8324-2.3765c2.5478 3.6162 1.6294 7.5696-0.32813 12.973h-14.909c1.7396-5.1905 2.7957-10.98-1.1778-16.286l2.8101-2.3578c0.42915-0.36025 0.65556-0.908 0.60585-1.466-0.05004-0.55803-0.36908-1.0561-0.85544-1.3348l-15.717-8.9928c-0.62349-0.35648-1.4022-0.2871-1.9523 0.17461-0.5498 0.46137-0.75396 1.217-0.51093 1.8926l6.1265 17.04c0.18955 0.52718 0.62395 0.92944 1.1649 1.0758 0.14774 0.03976 0.29821 0.0586 0.44765 0.0586 0.3983 0 0.78929-0.13856 1.1016-0.40078l2.8324-2.3765c2.5478 3.6165 1.6291 7.5696-0.32813 12.973h-15.343z"/>
</svg>
