<?xml version="1.0" encoding="UTF-8"?>
<svg width="100pt" height="100pt" version="1.1" viewBox="0 0 100 100" xmlns="http://www.w3.org/2000/svg">
 <title>plug, warm, glow, diesel, heating</title>
 <desc>Created with Sketch.</desc>
 <path d="m17.41 50.828c-3.6815 12.551 0.37882 22.702 9.0606 22.702 8.2864 0 11.065-9.6805 6.4248-22.53-1.8815-5.2102-4.6336-9.9011-8.0191-13.752-3.4077 3.7923-5.9507 8.4136-7.4663 13.58zm21.018-1.8268c5.8062 16.079 1.6924 30.411-11.957 30.411-13.554 0-19.335-14.454-14.705-30.24 1.7856-6.0876 4.8169-11.546 8.8816-16.022-5.1269-4.199-11.217-6.6796-17.706-6.6796-1.6244 0-2.9412-1.3168-2.9412-2.9412 0-1.6244 1.3168-2.9412 2.9412-2.9412 8.231 0 15.807 3.1849 22.029 8.4902 6.6348-5.3318 15.175-8.4902 25.03-8.4902 9.8634 0 18.409 3.1636 25.046 8.5033 6.2205-5.3129 13.792-8.5033 22.013-8.5033 1.6244 0 2.9412 1.3168 2.9412 2.9412 0 1.6244-1.3168 2.9412-2.9412 2.9412-6.4798 0-12.566 2.4867-17.692 6.6944 4.058 4.4727 7.0846 9.9262 8.8682 16.007 4.6303 15.786-1.1516 30.24-14.705 30.24-13.651 0-17.747-14.33-11.928-30.412 2.1457-5.9302 5.3019-11.304 9.2194-15.741-5.5651-4.2797-12.646-6.7873-20.82-6.7873-8.1644 0-15.238 2.5017-20.8 6.772 3.9248 4.4408 7.0841 9.8202 9.2284 15.758zm28.704 1.9997c-4.6506 12.853-1.885 22.529 6.3971 22.529 8.6818 0 12.742-10.15 9.0606-22.702-1.513-5.1583-4.0501-9.7728-7.4493-13.562-3.3777 3.8476-6.1262 8.5325-8.0084 13.734z"/>
</svg>
