<?xml version="1.0" encoding="UTF-8"?>
<svg width="100pt" height="100pt" enable-background="new 0 0 612 792" version="1.1" viewBox="0 0 100 100" xml:space="preserve" xmlns="http://www.w3.org/2000/svg"><path d="m31.502 1.1109c10.84-1.4812 26.156-1.4812 36.995 0 5.9199 0.80906 5.4149 22.66 5.5447 27.731l17.564 8.1504c1.4077 0.65184 1.2383 1.042 0.74016 2.2336-0.49023 1.1746-1.2601 1.8656-2.7313 1.3264l-15.461-5.6628c0.20218 14.419-0.11928 29.808 0.0376 40.43 0.0693 4.6067-0.59429 12.93-1.1566 17.916-0.287 2.5372-1.8443 4.8899-4.4554 5.4104-9.0555 1.8049-28.102 1.8049-37.158 0-2.6101-0.52049-4.1667-2.8716-4.4544-5.4104-0.56456-4.9871-1.2262-13.308-1.1578-17.916 0.15968-10.622-0.16265-26.012 0.03865-40.43l-15.461 5.6628c-1.4703 0.53833-2.2411-0.15181-2.7312-1.3264-0.49705-1.1916-0.6667-1.5814 0.73998-2.2336l17.563-8.1499c0.13117-5.0709-0.3748-26.922 5.5449-27.731zm3.1549 27.095c-0.59727 0.0911-1.1884 0.51594-1.1011 1.1349l1.9018 13.512c0.08622 0.61598 0.50999 1.2251 1.0992 1.1359 8.8046-1.3299 18.082-1.3299 26.886 0 0.58923 0.0892 1.0139-0.51996 1.1003-1.1359l1.9009-13.512c0.0881-0.62-0.50597-1.0441-1.1003-1.1349-9.5318-1.4672-21.155-1.4707-30.687 0zm0.72406 44.552c-0.57033-0.0427-1.0158 0.25098-1.0754 0.56142-0.2431 1.7516-2.6199 9.6385-0.2132 9.8279 9.5606 0.7496 22.255 0.7496 31.815 0 2.4069-0.18941 0.0301-8.0765-0.21425-9.8279-0.0584-0.31044-0.50684-0.60357-1.0744-0.56142-8.8799 0.66216-20.358 0.66408-29.238 0zm33.112-37.86c-0.40068 3.0016-1.5816 8.6954-1.4773 11.462l-0.0247 19.131c0.0147 2.1082 0.65656 5.9977 1.1555 8.0051 0.37603 1.492 1.168 0.72511 1.3888-0.54078 0.31463-1.7768 0.61528-3.7777 0.68768-5.3476 0.11403-2.451 0.0624-25.703 5e-3 -33.557-0.10983-4.8406-1.2507-3.8054-1.7348 0.84649zm-36.986 0c-0.48411-4.6518-1.626-5.6871-1.7351-0.84666-0.05754 7.8536-0.11106 31.105 0.0049 33.557 0.07328 1.5718 0.37305 3.5708 0.68751 5.3476 0.22019 1.2659 1.013 2.0328 1.3888 0.54077 0.49915-2.0074 1.1408-5.8969 1.1557-8.0051l-0.02571-19.131c0.10511-2.767-1.0754-8.4609-1.4761-11.462z" clip-rule="evenodd" fill-rule="evenodd"/></svg>
