<?xml version="1.0" encoding="UTF-8"?>
<svg width="100pt" height="100pt" enable-background="new 0 0 100 100" version="1.1" viewBox="0 0 100 100" xml:space="preserve" xmlns="http://www.w3.org/2000/svg"><path d="m99.997 50.15c0.03492-2.8633-0.18623-6.7276-2.7585-8.5201-2.4326-1.6877-6.6112-1.5131-9.3581-0.98935-3.5151 0.67509-4.132 4.3299-4.2589 7.5773-0.55869 0-1.1302 0.01164-1.6877 0.02328 0.10476-2.2697 0.23279-4.5743-0.02444-6.7974-0.27818-2.5723-1.0126-6.0525-4.0389-6.6228-2.3977-0.46558-4.8886 0.12803-7.3096 0.15131 0-0.33754 0.02444-0.68673 0.03492-1.0126 0.03492-1.6761 0.20951-3.3289-0.02328-5.005-0.34918-2.5141-2.293-3.3638-4.5394-3.7363-2.9913-0.47722-6.0641-0.58197-9.102-0.53541 0.02328-0.72164 0.02328-1.4316 0.02328-2.1533v-0.57033h9.7073c1.6528 0 2.4792-1.2803 2.4792-2.5607 0-0.71-0.25607-1.42-0.7682-1.8972-0.40738-0.37246-0.96607-0.61689-1.6749-0.61689h-37.538c-1.6528 0-2.4792 1.2803-2.4792 2.5607 0 0.71 0.25607 1.42 0.7682 1.8972 0.39574 0.37246 0.95443 0.61689 1.6644 0.61689h8.8925v2.6422c-3.2241 0.04656-6.4715 0.16295-9.6607 0.53541-1.0475 0.12803-2.13 0.22115-3.0612 0.74492-1.4084 0.80312-1.6412 2.5607-1.6179 4.0156 0.01164 0.65181 0.08148 1.3036 0.11639 1.9554 0 0.04656 0.01164 0.09312 0 0.13967-0.4423-0.04656-0.87296-0.1164-1.3153-0.17459-2.7702-0.43066-5.5986-1.0592-8.2756 0.06984-1.7576 0.74492-2.6771 3.7945-2.6771 5.5753v8.0661h-2.1417c0.023279-3.6897 0.034918-7.3678 0.058197-11.069 0.011639-1.0592-0.75656-2.258-1.8623-2.4676-3.0379-0.57033-5.1097 1.4782-6.6694 3.8294-0.8264 1.2687-0.80312 2.4443-0.80312 3.8876v6.2853c0 1.1989-0.27935 2.8517 0.11639 4.0156 0.58197 1.6877 1.1639 3.3743 1.7459 5.0736 0.12803 0.37246 0.25607 0.74609 0.3841 1.1174 0.023279 0.071 0.046558 0.13967 0.058197 0.18623v0.02444c-0.023279 3.8643-0.046558 7.7402-0.069837 11.605 0 0.72164 0.24443 1.292 0.61689 1.6994 1.3618 1.4316 4.4346 0.8846 4.4579-1.6644 0.023279-3.1671 0.046558-6.3318 0.069837-9.4978v-0.02444h3.7363c0 1.2233 0.02328 2.4559 0.06984 3.6781 0.10476 2.5723-0.11639 6.5192 2.1999 8.2186 1.8739 1.3618 5.3309 0.99983 7.4958 0.98935 1.6179 0 3.2474-0.04656 4.8769-0.13967 0.79148 1.3502 1.6528 2.6654 2.5374 3.9574 1.711 2.4908 3.7246 5.3646 6.6345 6.5414 1.5015 0.60525 3.2823 0.68673 4.8886 0.83804 2.5258 0.24443 5.0864 0.33754 7.6238 0.40738 6.0874 0.17459 12.186 0.10592 18.262-0.15131 2.3861-0.10476 4.7838-0.23279 7.1582-0.48886 1.6179-0.16295 3.3522-0.26654 4.8187-1.0243 2.7702-1.4433 2.9448-5.9943 3.1543-8.6365 0.12803-1.5946 0.16412-3.1892 0.19787-4.7722 0.0128-0.29098 0.02444-0.58197 0.02444-0.87296 0.83804-0.03492 1.6877-0.071 2.5258-0.10592 0.06984 0.50166 0.06984 1.0941 0.11639 1.619 0.11756 1.5713 0.22115 3.4104 1.3618 4.6313 1.2687 1.3502 3.6781 1.7704 5.4356 1.9671 2.0136 0.20951 4.0982 0.08148 5.9012-0.8974 4.0156-2.1882 3.4685-8.4502 3.4685-12.384-0.0012-3.9202-0.0012-7.831 0.03375-11.753zm-5.68 18.914c-0.34918 1.1639-0.87296 1.1046-2.1999 1.1395-0.97771 0.01164-1.91-0.18623-2.84-0.45394-0.09311-0.02444-0.17343-0.0582-0.24443-0.08148-0.04656-0.15131-0.09311-0.30262-0.10476-0.37246-0.37246-2.1638 0.10476-7.6238-3.5617-7.4725-2.1649 0.08264-4.3415 0.16412-6.5181 0.25723-0.84851 0.03375-1.8262 0.4423-2.2103 1.2687-0.8974 1.9089-0.57033 4.4579-0.64133 6.5064-0.06984 2.2115-0.16295 5.552-0.94279 7.1233-0.06984 0.01164-0.12803 0.02328-0.18623 0.03492-0.31426 0.06984-0.62853 0.12687-0.93115 0.17343-0.10476 0.01164-0.19787 0.02444-0.30263 0.04656 0-0.01164-0.54822 0.0582-0.62853 0.071-2.3861 0.25607-4.7733 0.3713-7.1699 0.47605-6.0758 0.26771-12.175 0.31543-18.262 0.15131-2.5374-0.0582-5.0864-0.17343-7.6238-0.40738-1.2105-0.10476-1.3153-0.12803-2.1184-0.26654-0.30262-0.05936-0.60525-0.12803-0.90788-0.19903-0.16295-0.04539-0.25607-0.0582-0.30262-0.06984 0-0.01164-0.0582-0.08148-0.30262-0.23279-1.6062-0.99983-3.2358-3.5966-4.3997-5.3646-0.86132-1.3036-1.6761-2.6433-2.4326-4.0156-0.40738-0.73328-1.3269-1.3153-2.1766-1.2571-1.6295 0.10475-3.2707 0.16295-4.9002 0.19787-1.3735 0.03492-2.7469 0.03492-4.1204-0.02444-0.52377-0.02328-1.0592-0.0582-1.5946-0.11639-0.04656-0.25607-0.08148-0.5005-0.08148-0.53541-0.17459-1.3618-0.23279-2.7353-0.27935-4.1087-0.0582-1.839-0.06984-3.6897-0.04656-5.5287 0.02328-1.3839-1.1407-2.5595-2.5141-2.5595h-7.0186c-0.33754-1.001-0.68673-2.0031-1.0243-2.9913-0.011639-0.02444-0.023279-0.0582-0.023279-0.08148 0.31426 0.16412 0.68673 0.24443 1.1057 0.24443h7.2281c1.3735 0 2.5607-1.1395 2.5607-2.5258v-10.51c0.01164-0.06984 0.02328-0.15131 0.04656-0.24443 0.08148-0.33754 0.16295-0.68673 0.29098-1.0243 2.3744-0.18623 4.842 0.59361 7.2048 0.80312 2.8517 0.25607 4.4695-1.3036 4.714-4.0854 0.09312-0.95443-0.03492-1.9089-0.08148-2.8633 0.08148-0.01164 0.19787-0.02328 0.39574-0.03492 3.7595-0.3841 7.5773-0.43066 11.36-0.47722 1.3851-0.01164 2.5607-1.1174 2.5607-2.5141v-5.1795h8.7761c0.01164 0.62853 0.01164 1.2571 0 1.8739-0.02444 1.1407-0.0582 2.2813-0.12803 3.422-0.08031 1.3385 1.1884 2.5956 2.5258 2.5607 3.4918-0.10476 7.0302-0.10476 10.51 0.31426 0 0.01164 0.58197 0.1164 0.84968 0.16295 0.03375 0.60525 0 1.2105-0.03492 1.8041-0.11756 2.6189-0.62853 6.7392 2.6072 7.6937 2.1882 0.64017 4.679 0.11639 6.9022-0.01164 0.4423-0.03492 0.89624-0.03492 1.3502-0.02328 0.36082 0.73328 0.39574 1.6644 0.4423 2.3162 0.24443 2.8633-0.08148 5.8546-0.13967 8.7179-0.02328 1.3618 1.1523 2.584 2.5258 2.5607 2.2697-0.03492 4.5394-0.05936 6.8102-0.09311 1.3956-0.0128 2.5258-1.1174 2.5479-2.5258 0.02444-0.84968 0.071-1.7122 0.12803-2.5607 0.04656-0.60641 0.10476-1.2221 0.19787-1.8274 0.03492-0.26771 0.09311-0.51214 0.15131-0.7682 0.03492-0.01164 0.06984-0.02328 0.08148-0.02328 0.29099-0.06984 0.41786-0.06984 0.73328-0.09312 0.79148-0.06984 1.5946-0.03492 2.3861 0.02328 0.62853 0.03492 1.2338 0.15131 1.8507 0.30262 0.12803 0.03492 0.19787 0.03492 0.22115 0.02328-0.0128 0-0.02444 0.02328 0 0.08148 0.67509 1.7343 0.5005 3.6548 0.5005 5.4705v6.0758c0 3.6897 0.52378 8.0545-0.57033 11.628z"/></svg>
