<?xml version="1.0" encoding="UTF-8"?>
<svg width="100pt" height="100pt" fill="#000000" version="1.1" viewBox="0 0 100 100" xml:space="preserve" xmlns="http://www.w3.org/2000/svg">
<path d="m86.247 23.565c-7.7966-5.7081-17.505-9.1164-25.97-9.1164-8.5199 0-14.816 3.4347-18.715 10.209-3.0549 5.308-4.5397 12.545-4.5397 22.124 0 9.5795 1.4849 16.816 4.5397 22.124 3.8988 6.7744 10.195 10.21 18.715 10.21 8.465 0 18.173-3.4082 25.97-9.1164 8.8685-6.4934 13.753-14.738 13.753-23.217 0-8.4787-4.8841-16.724-13.753-23.218zm-4.1916 40.71c-6.5256 4.7782-14.87 7.746-21.778 7.746-7.5232 0-16.159-2.8685-16.159-25.238s8.6358-25.238 16.159-25.238c6.9078 0 15.253 2.9678 21.778 7.746 6.8945 5.0478 10.849 11.423 10.849 17.492 0 6.0681-3.9541 12.444-10.849 17.492z"/><path d="m33.474 29.465c-0.87606-1.7526-3.0066-2.4631-4.7597-1.5866l-9.273 4.6362c1.2838-3.4215 2.5922-6.9584 2.4641-10.693-0.06717-1.9584-1.7077-3.4939-3.6675-3.4238-1.9584 0.06717-3.491 1.7091-3.4238 3.6675 0.08136 2.3685-0.96074 5.1457-2.0643 8.0856-0.76679 2.043-1.631 4.3477-2.1164 6.7677l-8.6717 4.3359c-1.7526 0.87606-2.4631 3.0071-1.5866 4.7597 0.62157 1.2431 1.8742 1.9617 3.176 1.9617 0.53311 0 1.0747-0.12062 1.5837-0.37512l5.7701-2.8851c0.70435 2.1282 2.0378 4.2308 4.3037 6.2186 0.02838 0.0246 0.05393 0.04967 0.08136 0.07427l-13.328 6.6641c-1.7526 0.87607-2.4631 3.0071-1.5866 4.7597 0.62157 1.2431 1.8742 1.9617 3.176 1.9617 0.53311 0 1.0747-0.12062 1.5837-0.37512l12.478-6.2389c-0.30227 1.7223-1.008 3.7029-1.9106 6.1074-0.47256 1.2597-0.98203 2.6187-1.4172 4.0426l-12.323 6.1618c-1.7526 0.87606-2.4631 3.0071-1.5866 4.7597 0.62157 1.2431 1.8742 1.9617 3.176 1.9617 0.53311 0 1.0747-0.12062 1.5837-0.37559l8.219-4.1098c0.42006 2.8444 1.7886 5.6954 4.807 8.343 0.67361 0.59082 1.5076 0.8808 2.3382 0.8808 0.98628 0 1.9674-0.4087 2.6684-1.2081 1.2919-1.473 1.1452-3.7143-0.32734-5.0066-2.2597-1.9825-2.8363-3.9688-2.4584-6.5222l11.507-5.7536c1.7526-0.87606 2.4631-3.0071 1.5866-4.7597-0.87606-1.7531-3.0066-2.4636-4.7597-1.5866l-5.2777 2.6391c0.94797-2.8363 1.6963-5.9768 1.298-9.1348l7.1533-3.5766c1.7526-0.87606 2.4631-3.0071 1.5866-4.7597-0.87606-1.7526-3.0066-2.4636-4.7597-1.5866l-6.8032 3.4016c-0.5738-0.7105-1.2408-1.4111-2.0237-2.0979-1.5047-1.3198-2.2611-2.6419-2.4886-4.1315l14.487-7.2441c1.7526-0.87607 2.4631-3.0071 1.5866-4.7597z"/>
</svg>
