<?xml version="1.0" encoding="UTF-8"?>
<svg width="100pt" height="100pt" version="1.1" viewBox="0 0 100 100" xmlns="http://www.w3.org/2000/svg">
 <path d="m53.011 34.508c0 0.91067-0.74 1.6507-1.6493 1.6507h-33.931c-0.91067 0-1.648-0.74-1.648-1.6507v-25.785c0-0.90934 0.73733-1.6493 1.648-1.6493h33.931c0.90933 0 1.6493 0.74 1.6493 1.6493zm36.421-3.1787c1.032-0.276 2.8227-0.75333 3.6747-0.992 1.0107-0.28267 1.1773-0.73067 0.872-1.6893-4.3747-13.724-11.839-24.147-25.176-28.508-1.0133-0.332-1.628-0.10533-2.0133 1.0427-0.276 0.816-0.38 1.6667-0.344 2.78 0.03867 1.16 0.30533 1.624 0.80533 2.08 10.009 9.2 14.069 15.548 15.276 30.403 0.776 9.5493 4.2187 27.159 6.8347 34.864 1.808 5.3213-2.3853 11.229-8.192 11.229-4.7547 0-8.6227-3.8681-8.6227-8.6228v-24.819c0-6.848-5.6147-11.743-11.541-11.733h-1.404v-31.357c0-3.1867-2.5853-5.7707-5.7707-5.7707h-39.359c-3.188 0-5.772 2.584-5.772 5.7707v85.263c0 0.9104-0.73733 1.6265-1.648 1.6265h-1.7907c-0.91067 0-1.6493 0.71613-1.6493 1.6281v3.8276c0 0.91093 0.73867 1.6485 1.6493 1.6485h57.777c0.912 0 1.652-0.7376 1.652-1.6485v-3.8276c0-0.912-0.74-1.6281-1.652-1.6281h-1.788c-0.912 0-1.6493-0.71613-1.6493-1.6265v-47.37h0.96934c3.8507 0 5.38 3.0813 5.38 5.1973v24.819c0 8.404 6.8147 15.22 15.219 15.22 9.7 0 17.724-9.3844 14.489-19.784-3.1307-10.069-6.56-27.093-6.9813-37.069-8e-3 -0.34267 0.232-0.808 0.75467-0.95334"/>
</svg>
