<?xml version="1.0" encoding="UTF-8"?>
<svg width="100pt" height="100pt" fill="#000000" version="1.1" viewBox="0 0 100 100" xml:space="preserve" xmlns="http://www.w3.org/2000/svg">
<path d="m86.247 26.782c-7.7967-5.7082-17.505-9.1165-25.97-9.1165-8.5199 0-14.817 3.4352-18.715 10.21-3.0544 5.308-4.5398 12.545-4.5398 22.125 0 9.5791 1.4849 16.816 4.5398 22.125 3.8988 6.7744 10.195 10.21 18.715 10.21 8.4651 0 18.174-3.4083 25.97-9.1165 8.8686-6.4934 13.753-14.739 13.753-23.217 0-8.4797-4.8842-16.725-13.753-23.218zm-4.1916 40.709c-6.5256 4.7782-14.871 7.7461-21.779 7.7461-7.5232 0-16.159-2.8685-16.159-25.238s8.6358-25.239 16.159-25.239c6.9083 0 15.253 2.9679 21.779 7.7461 6.8946 5.0478 10.849 11.423 10.849 17.493-4.73e-4 6.0686-3.9546 12.444-10.849 17.492z"/><path d="m30.301 21.26-26.753-4.73e-4c-1.9593 0-3.5478 1.5885-3.5478 3.5478 0 1.9593 1.5885 3.5478 3.5478 3.5478l26.753 4.73e-4c1.9593 0 3.5478-1.5885 3.5478-3.5478 0-1.9593-1.5885-3.5478-3.5478-3.5478z"/><path d="m30.301 34.2h-26.753c-1.9593 0-3.5478 1.5885-3.5478 3.5478 0 1.9593 1.5885 3.5478 3.5478 3.5478h26.753c1.9593 0 3.5478-1.5885 3.5478-3.5478 0-1.9593-1.5885-3.5478-3.5478-3.5478z"/><path d="m30.301 47.14h-26.753c-1.9593 0-3.5478 1.5885-3.5478 3.5478s1.5885 3.5478 3.5478 3.5478h26.753c1.9593 0 3.5478-1.5885 3.5478-3.5478s-1.5885-3.5478-3.5478-3.5478z"/><path d="m30.301 60.08h-26.753c-1.9593 0-3.5478 1.5885-3.5478 3.5478 0 1.9593 1.5885 3.5478 3.5478 3.5478h26.753c1.9593 0 3.5478-1.5885 3.5478-3.5478 0-1.9593-1.5885-3.5478-3.5478-3.5478z"/><path d="m30.301 73.019h-26.753c-1.9593 0-3.5478 1.5885-3.5478 3.5478 0 1.9593 1.5885 3.5478 3.5478 3.5478h26.753c1.9593 0 3.5478-1.5885 3.5478-3.5478 0-1.9593-1.5885-3.5478-3.5478-3.5478z"/>
</svg>
