<?xml version="1.0" encoding="UTF-8"?>
<svg width="100pt" height="100pt" version="1.1" viewBox="0 0 100 100" xmlns="http://www.w3.org/2000/svg">
 <path d="m75.078 55c-2.76 0-4.1381 0.54452-10.078 4.9995l-8.1533 6.5522c-1.155 0.765-1.8457 2.0582-1.8457 3.4482h-45l-5.001 4.9995v4.9995l5.001 5.001h9.999l3.75-3.9067 3.75 3.9067h5.001l3.75-2.5005 3.75 2.5005h1.7183 13.282c0 1.385 0.6907 2.6768 1.8457 3.4468l8.1533 6.5522c6.015 3.985 7.3131 5.001 10.078 5.001h9.9229c5.525 0 9.999-4.4755 9.999-10v-25c0-5.525-4.474-9.999-9.999-9.999h-9.9229zm-0.077637 9.999h10v25h-10v-25z"/>
 <path d="m45 46.5v7a1.5 1.5 45 0 0 1.5 1.5h7a1.5 1.5 135 0 0 1.5-1.5v-7a1.5 1.5 45 0 0-1.5-1.5h-7a1.5 1.5 135 0 0-1.5 1.5z"/>
 <path d="m48.502 0.066038c-8.4263 0.75519-12.745 7.8366-13.411 13.438-0.097702 0.82214 0.58027 1.4963 1.4087 1.4963h7c0.82843 0 1.5368-0.68269 1.806-1.4631 0.42106-1.2206 1.3492-2.7816 3.2132-3.333 0.79161-0.23415 2.1657-0.23321 2.9669-0.03102 2.0765 0.52403 2.9261 2.1331 3.2736 3.3508 0.22669 0.79435 0.23684 2.1581 0.02455 2.9565-1.3079 4.9187-8.1649 12.358-9.5429 17.045-0.2328 0.79178 0.43023 1.4747 1.2587 1.4747h7c0.82843 0 1.5041-0.6855 1.7503-1.4732 1.4292-4.5721 8.5322-11.007 9.612-17.036 0.14578-0.81388 0.14515-2.1644 0.06129-2.9882-0.65892-6.4732-5.547-12.729-13.426-13.436-0.82483-0.074086-2.1712-0.074263-2.9961-3.3867e-4z"/>
</svg>
