<?xml version="1.0" encoding="UTF-8"?>
<svg width="100pt" height="100pt" fill="#000000" version="1.1" viewBox="0 0 100 100" xml:space="preserve" xmlns="http://www.w3.org/2000/svg">
<path d="m86.248 21.203c-7.7966-5.7086-17.505-9.1164-25.97-9.1164-8.5199 0-14.817 3.4352-18.715 10.21-3.0544 5.308-4.5398 12.545-4.5398 22.125 0 9.5791 1.4849 16.816 4.5398 22.125 3.8988 6.7744 10.195 10.21 18.715 10.21 8.465 0 18.173-3.4083 25.97-9.1169 8.8685-6.4934 13.752-14.739 13.752-23.217 0-8.4792-4.8841-16.725-13.752-23.218zm-4.1921 40.709c-6.5256 4.7782-14.871 7.7465-21.778 7.7465-7.5232 0-16.159-2.8685-16.159-25.239 0-22.37 8.6358-25.239 16.159-25.239 6.9078 0 15.253 2.9683 21.778 7.746 6.8946 5.0478 10.849 11.423 10.849 17.493 0 6.0686-3.9541 12.444-10.849 17.492z"/><path d="m28.715 16.056-26.753 13.376c-1.7526 0.87607-2.4631 3.0071-1.5866 4.7597 0.62157 1.2431 1.8742 1.9617 3.176 1.9617 0.53312 0 1.0743-0.12063 1.5837-0.37559l26.753-13.376c1.7526-0.87607 2.4631-3.0076 1.5866-4.7597-0.87654-1.7526-3.0076-2.4636-4.7602-1.5861z"/><path d="m28.715 28.996-26.753 13.377c-1.7526 0.87607-2.4631 3.0071-1.5866 4.7597 0.62157 1.2431 1.8742 1.9617 3.176 1.9617 0.53312 0 1.0743-0.12062 1.5837-0.37512l26.753-13.377c1.7526-0.87607 2.4631-3.0071 1.5866-4.7597-0.87654-1.7531-3.0076-2.4636-4.7602-1.5866z"/><path d="m28.715 41.935-26.753 13.376c-1.7526 0.87607-2.4631 3.0071-1.5866 4.7597 0.62157 1.2431 1.8742 1.9617 3.176 1.9617 0.53312 0 1.0743-0.12062 1.5837-0.37512l26.753-13.376c1.7526-0.87607 2.4631-3.0071 1.5866-4.7597-0.87654-1.7531-3.0076-2.4631-4.7602-1.5866z"/><path d="m28.715 54.875-26.753 13.377c-1.7526 0.87607-2.4631 3.0071-1.5866 4.7597 0.62157 1.2431 1.8742 1.9617 3.176 1.9617 0.53312 0 1.0743-0.12062 1.5837-0.37512l26.753-13.377c1.7526-0.87607 2.4631-3.0071 1.5866-4.7597-0.87654-1.7531-3.0076-2.4636-4.7602-1.587z"/><path d="m28.715 67.815-26.753 13.377c-1.7526 0.87607-2.4631 3.0071-1.5866 4.7597 0.62157 1.2431 1.8742 1.9617 3.176 1.9617 0.53312 0 1.0743-0.12062 1.5837-0.37512l26.753-13.377c1.7526-0.87607 2.4631-3.0071 1.5866-4.7597s-3.0076-2.4636-4.7602-1.5866z"/>
</svg>
