<?xml version="1.0" encoding="UTF-8"?>
<svg width="100pt" height="100pt" version="1.1" viewBox="0 0 100 100" xmlns="http://www.w3.org/2000/svg">
<path d="m94.999 49.387c1.2409 0 5.087 5.0466 4.9999 9.9875 0 2.7614-2.2385 4.9999-4.9999 4.9999-2.7614 0-4.9999-2.2385-4.9999-4.9999 0.0308-4.9637 3.7591-9.9875 4.9999-9.9875z"/>
<path d="m42.499 29.375c1.3807 0 2.5 1.1193 2.5 2.5 0 1.2821-0.96509 2.3387-2.2084 2.4831l-0.29155 0.01682h-4.9999v4.9974l15 0.0025c0.59016 0 1.1545 0.2084 1.599 0.57816l0.2118 0.19812 0.18922 0.2237 6.1099 8.1474 25.547-16.256c0.01425-9e-3 0.0285-0.018 0.04275-0.02675 0.03085-0.0195 0.06247-0.03773 0.09442-0.05527 1.1206-0.63707 2.2087-0.33755 2.9195 0.36102l6.0971 4.8779c1.0781 0.86251 1.2529 2.4357 0.39043 3.5139-0.79617 0.99521-2.1979 1.2207-3.2568 0.57112l-0.25704-0.18068-4.8357-3.8721-9.2249 6.0349-15.999 25.947c-0.39834 0.64592-1.0647 1.0708-1.8061 1.167l-0.32176 0.02076h-44.999c-1.3807 0-2.5-1.1193-2.5-2.5v-14.705l-11.118-5.5589c-0.75284-0.37642-1.2592-1.1022-1.3624-1.9239l-0.019509-0.31213v-9.9999c0-1.8584 1.9558-3.0672 3.618-2.236l11.974 5.986 16.907-0.0025v-4.9974h-4.9999c-1.3807 0-2.5-1.1193-2.5-2.5 0-1.2821 0.96509-2.3387 2.2084-2.4831l0.29155-0.01682zm8.7499 15-33.75-0.0025v21.252h41.102l10.05-16.297-7.3102 4.6566c-1.0173 0.64738-2.3364 0.47103-3.1498-0.3819l-0.19234-0.22724zm-46.249-4.7049v4.4099l7.4999 3.7474v-4.4074z"/>
</svg>
