<?xml version="1.0" encoding="UTF-8"?>
<svg id="a" width="100pt" height="100pt" version="1.1" viewBox="0 0 100 100" xmlns="http://www.w3.org/2000/svg">
 <path d="m48.625 0.1575c-9.1547 1.4296-13.96 12.246-8.8938 20.018 6.7448 10.347 22.818 6.3759 23.954-5.9187 0.77665-8.4061-6.6996-15.405-15.061-14.1m23.956 24.864c-0.78626 0.27176-1.7019 0.99662-8.4328 6.675l-1.7866 1.5072-1.0043-0.63535c-5.011-3.1701-15.893-3.3113-20.842-0.27033-4.2969 2.6403-6.0372 7.4679-8.2479 22.878-0.42143 2.9377-0.46076 3.3147-0.34561 3.3147 0.2351 0 4.5191-3.5245 17.416-14.328 11.431-9.575 12.791-10.704 12.945-10.74 0.75832-0.17637 4.1379 5.813 4.1379 7.3333 0 0.57074 0.46859 0.26891 3.7226-2.3981 6.8199-5.5896 7.9319-6.7106 8.2714-8.3396 0.67895-3.2563-2.6419-6.1006-5.8343-4.9972m-8.0984 18.246c-3.6466 2.9633-27.644 23.093-27.597 23.148 0.0098 0.01157 0.42926-0.0436 0.93184-0.12262 2.6941-0.42374 7.4832-0.59797 14.607-0.53141 6.9972 0.06549 8.4282 0.1858 14.995 1.2602 1.9233 0.31465 3.5264 0.5428 3.5624 0.50668 0.09059-0.09059-0.08436-1.3515-0.78715-5.6722-0.33298-2.0473-0.9548-5.9484-1.3819-8.669-1.0911-6.95-1.8982-11.276-2.1507-11.529-0.051255-0.051255-0.98203 0.6357-2.1794 1.6087m-34.491 17.23c-9.3236 7.6128-14.583 12.227-15.072 13.222-1.181 2.4027 0.0509 5.3349 2.5618 6.0975 1.3394 0.40701 1.9616 0.30237 5.6975-0.95693 3.2161-1.0842 5.1328-1.6656 7.139-2.1657 1.5344-0.38228 1.4864-0.29133 1.129-2.1418-0.16248-0.8409-0.5097-2.7078-0.77185-4.1486l-0.47642-2.6197 0.61648-3.7544c0.71614-4.3609 0.76936-4.7234 0.69283-4.7234-0.03132 0-0.71347 0.53604-1.5159 1.1913m41.174 7.5017c-0.02972 0.12707-0.35078 1.8372-0.71383 3.8005-0.36288 1.9632-0.70351 3.7991-0.75708 4.0794-0.12529 0.65795-0.22406 0.59726 1.8348 1.1297 0.97687 0.25254 3.3593 0.99092 5.2945 1.6407 3.9783 1.3356 4.3586 1.41 5.4727 1.0717 3.8486-1.1689 4.4108-6.3239 0.88859-8.1488-1.4439-0.74818-5.7923-2.2707-8.8089-3.0844-0.91725-0.24738-1.4157-0.36199-2.9299-0.6729-0.1721-0.03542-0.24026 0.0093-0.28101 0.18402m-24.53 6.6112c-4.5069 0.14611-13.811 1.2499-14.589 1.7306-0.27122 0.16764 2.8639 17.73 3.57 19.999 1.1822 3.7989 6.5108 4.8172 9.4695 1.8096 1.8304-1.8605 1.8849-2.99 0.4903-10.143-0.87649-4.4949-1.0393-5.5314-0.89215-5.6784 0.18331-0.18331 11.782-0.17672 11.966 0.0066 0.16391 0.16409-0.03114 1.5378-0.74177 5.2223-1.4161 7.3421-1.4346 7.879-0.33529 9.6587 2.74 4.4359 9.1888 3.3609 10.384-1.7307 0.78003-3.3237 3.4216-17.717 3.4216-18.644 0-0.35202-0.08329-0.37996-2.3969-0.80708-3.01-0.55562-6.3093-0.96992-9.7528-1.225-1.2344-0.09148-7.9368-0.32693-8.1968-0.28795-0.05606 0.0084-1.1345 0.04876-2.3967 0.0897" fill-rule="evenodd"/>
</svg>
