<?xml version="1.0" encoding="UTF-8"?>
<svg width="100pt" height="100pt" enable-background="new 0 0 91 91" version="1.1" viewBox="0 0 100 100" xml:space="preserve" xmlns="http://www.w3.org/2000/svg"><path d="m15.316 83.547v4.7611c0 2.0244 1.6408 3.6653 3.6641 3.6653s3.6641-1.642 3.6641-3.6653v-2.9027h8.1824v2.9027c0 2.0244 1.6408 3.6653 3.6641 3.6653s3.6641-1.642 3.6641-3.6653v-2.9027h8.1802v2.9027c0 2.0244 1.6408 3.6653 3.6641 3.6653s3.6641-1.642 3.6641-3.6653v-2.9027h8.1802v2.9027c0 2.0244 1.6408 3.6653 3.6641 3.6653 2.0233 0 3.6641-1.642 3.6641-3.6653v-2.9027h8.1824v2.9027c0 2.0244 1.6408 3.6653 3.6641 3.6653 2.0233 0 3.6641-1.642 3.6641-3.6653v-4.7611c8.5328-6.7431 13.558-14.895 14.937-24.261 2.5546-17.347-8.5592-32.768-9.8336-34.468-2.8042-3.7397-2.5569-10.345-2.2248-12.577 0.30344-1.9969-1.0683-3.8622-3.0664-4.1714-2.0027-0.30916-3.8702 1.0649-4.1782 3.0664-0.06985 0.45-1.634 11.091 3.6057 18.079 1.0878 1.4496 10.569 14.592 8.447 29.004-1.1153 7.5698-5.3553 14.245-12.592 19.857h-59.556c-7.2378-5.613-11.479-12.289-12.593-19.861-2.1206-14.416 7.3592-27.551 8.4469-28.999 5.242-6.9893 3.679-17.629 3.6092-18.079-0.30802-2.0015-2.1767-3.3744-4.1782-3.0664-2.0004 0.30916-3.3721 2.1779-3.0653 4.1794 0.0126 0.07786 1.1313 8.0886-2.2271 12.569-1.2756 1.6992-12.387 17.11-9.8347 34.463 1.3775 9.3653 6.4042 17.52 14.937 24.265z"/><path d="m44.446 64.026c0 3.0641 2.4916 5.5557 5.5546 5.5557s5.5546-2.4916 5.5546-5.5557-2.4916-5.5557-5.5546-5.5557-5.5546 2.4927-5.5546 5.5557z"/><path d="m49.86 16.5c-3.3252 0-5.1721 1.729-6.134 3.1798-1.4118 2.1286-2.0989 5.3496-2.0989 9.845-0.0011 8.8809 5.6817 24.303 5.9233 24.954 0.35954 0.97099 1.2847 1.6145 2.3187 1.6145 1.034 0 1.9592-0.64466 2.3187-1.6145 0.2416-0.65038 5.9244-16.073 5.9279-24.954 0-3.2221 0-13.025-8.2557-13.025z"/></svg>
