<?xml version="1.0" encoding="UTF-8"?>
<svg id="a" width="100pt" height="100pt" enable-background="new 0 0 100 80" version="1.1" viewBox="0 0 100 100" xml:space="preserve" xmlns="http://www.w3.org/2000/svg">
<path d="m32.901 45.409v7.2058c0 1.2119-0.65731 1.974-1.9596 1.974h-8.2698c-1.5077 0-2.011-0.64294-2.011-1.9268v-11.427c-0.51353-3.2065-0.93667-6.4191-0.70661-9.6728 0.17049-2.3951 1.3208-4.517 1.5796-6.8114h-4.2992c-0.89559 0-2.011-0.99624-2.011-1.9493 0 0 1.1811-4.8806 1.8405-5.2914 1.0271-0.64294 9.0627-0.40877 9.0627-0.40877 1.5118-3.9685 6.9326-10.887 10.811-12.349 0.80316-0.54434 13.701-1.4625 18.286-1.4194 4.3506 0.043136 16.48 1.1277 17.337 1.5077 2.3889 0.5012 9.7385 9.72 10.737 12.265h7.0374c0.43958 0 2.0952 0.05135 2.6724 1.1318 0 0 1.8528 3.3934 1.5734 4.5704-0.16022 0.67991-0.61007 1.9596-2.0069 1.9493-1.5241-0.01027-4.5786 0-4.5786 0 0.12325 1.1215 0.6984 2.1712 0.97775 3.2558 0.34509 1.3495 0.40671 2.7053 0.52996 4.0856 0.26087 2.9764-0.04314 6.2383-0.74359 9.1428v11.425c0 1.1606-0.67786 1.9268-2.0418 1.9268h-8.2678c-1.4235 0-1.9288-0.65526-1.9288-1.974v-7.2079zm42.033-28.308c-1.783-2.9846-4.0014-4.9011-7.4297-5.8378-3.5515-1.1318-7.5365-1.0476-11.224-1.0476h-5.0038c-6.2034 0-13.563 0.50326-16.533 6.8854h40.191c-0.96748-1.6186 0 0 0 0-0.96748-1.6186 0 0 0 0zm-48.452 22.184h56.402v-6.8874h-12.049v-6.1192h10.092l-1.859-3.0586h-48.719l-1.9678 3.0586h10.199v6.1192h-12.097v6.8874" style="fill:#080600"/><path d="m27.077 96.669h-12.992s-5.8275-3.1325-8.0377-4.6094c-2.0459-1.368-6.0473-3.7919-6.0473-6.6081 0-5.3058 10.314-7.1873 14.007-8.3828 3.5248-1.1421 7.1483-1.9268 10.661-3.1387 1.7583-0.60596 7.4646-2.2821 7.4646-4.7553 0-4.0466-7.4318-6.7703-9.6255-9.4797h10.351s12.279 5.127 12.279 10.673c0 2.697-3.6193 4.1637-5.6652 5.0387-3.2578 1.3886-16.679 5.7289-20.001 6.8155-1.9268 0.63061-6.339 1.6618-6.2589 4.3691 0.02465 0.82164 1.2818 2.3437 1.9596 2.8922 2.697 2.1917 10.131 6.2013 11.906 7.1853 0 0-1.7747-0.98392 0 0 0 0-1.7747-0.98392 0 0z" style="fill:#080600"/><path id="b" d="m81.942 96.669h-12.992s-5.8275-3.1325-8.0377-4.6094c-2.0459-1.368-6.0473-3.7919-6.0473-6.6081 0-5.3058 10.314-7.1873 14.007-8.3828 3.5248-1.1421 7.1483-1.9268 10.659-3.1387 1.7583-0.60596 7.4667-2.2821 7.4667-4.7553 0-4.0466-7.4318-6.7703-9.6255-9.4797h10.351s12.277 5.127 12.277 10.673c0 2.697-3.6193 4.1637-5.6652 5.0387-3.2578 1.3886-16.677 5.7289-19.999 6.8155-1.9268 0.63061-6.339 1.6618-6.2589 4.3691 0.02465 0.82164 1.2797 2.3437 1.9576 2.8922 2.6991 2.1917 10.133 6.2013 11.908 7.1853 0 0-1.7747-0.98392 0 0 0 0-1.7747-0.98392 0 0z" style="fill:#080600"/>
</svg>
