<?xml version="1.0" encoding="UTF-8"?>
<svg width="100pt" height="100pt" version="1.1" viewBox="0 0 100 100" xmlns="http://www.w3.org/2000/svg">
	<path d="m24.633 19.53-4.9722-2.8958c-1.5773 2.7082-2.4113 5.805-2.4113 8.9547h5.7539c0-2.1339 0.56312-4.2288 1.6295-6.0589z"/>

	<path d="m35.064 13.529c0.46147 0 0.92639 0.02609 1.3813 0.07787l0.64981-5.7171c-0.66976-0.076336-1.3533-0.1147-2.0311-0.1147-4.8993 0-9.6336 2.0492-12.989 5.6216l4.1946 3.9392c2.305-2.4546 5.4283-3.8068 8.794-3.8068z"/>

	<path d="m46.596 22.049h6.8081c1.1117-3.6284 3.9119-6.5545 7.4905-7.8273l-1.928-5.4214c-3.7128 1.3203-6.8537 3.8494-8.9666 7.0939-2.1125-3.2445-5.2534-5.7731-8.9662-7.0939l-1.928 5.4214c3.5782 1.2728 6.3784 4.1988 7.4901 7.8273z"/>

	<path d="m76.998 25.589h5.754c0-3.1497-0.83394-6.2465-2.4113-8.9547l-4.9722 2.8958c1.066 1.8301 1.6295 3.925 1.6295 6.0589z"/>

	<path d="m64.937 13.529c3.3657 0 6.4889 1.3518 8.794 3.8068l4.1942-3.9392c-3.3549-3.5728-8.0893-5.6216-12.988-5.6216-0.67782 0-1.361 0.038743-2.0311 0.1147l0.64943 5.7171c0.45533-0.0514 0.92025-0.07787 1.3817-0.07787z"/>

	<path d="m47.124 59.181v7.8633h5.7539v-7.8633z"/>

	<path d="m47.124 41.846v13.919h5.7539v-13.919z"/>

	<path d="m99.158 48.829c-12.45-12.45-28.791-19.591-46.28-20.299v-4.1931h-5.7543v4.1931c-17.489 0.70735-33.831 7.8488-46.281 20.299-1.1239 1.1236-1.1239 2.9453 0 4.0684l29.947 29.947c0.53934 0.53972 1.2712 0.84276 2.0346 0.84276 0.76297 0 1.4945-0.30304 2.0342-0.84276 1.9138-1.9138 4.1283-3.4148 6.5338-4.4712l3.205 5.08c-0.46377 0.84506-0.72845 1.8144-0.72845 2.8463 0 3.2728 2.6533 5.9258 5.9258 5.9258 3.2728 0 5.9258-2.653 5.9258-5.9258 0-3.2728-2.653-5.9258-5.9258-5.9258-0.11009 0-0.2175 0.01036-0.32682 0.01649l-2.2897-3.6284c0.92869-0.12122 1.87-0.18873 2.8217-0.18873 5.7202 0 11.098 2.2275 15.142 6.2718 0.53934 0.53972 1.2712 0.84276 2.0346 0.84276 0.76297 0 1.4945-0.30304 2.0342-0.84276l29.947-29.947c0.53972-0.53934 0.84276-1.2712 0.84276-2.0342 3.8e-4 -0.76336-0.30266-1.4953-0.84238-2.0346zm-32.086 28.018c-4.8187-3.9062-10.782-6.0286-17.071-6.0286-2.0906 0-4.1436 0.23975-6.1322 0.69623l-15.252-24.172c-0.84775-1.3437-2.6246-1.7461-3.9683-0.898-1.3437 0.84775-1.7457 2.6246-0.898 3.9683l14.543 23.048c-1.9007 0.90912-3.7013 2.0384-5.3631 3.3856l-25.939-25.939c11.072-10.137 25.136-15.961 40.133-16.622v4.1666h5.7543v-4.1666c14.997 0.6617 29.061 6.4862 40.132 16.622z"/>
</svg>
